<svg width="20" height="20" viewBox="0 0 20 20" fill="none" xmlns="http://www.w3.org/2000/svg">
<path d="M5.76758 10.4167L10.3001 14.9492C10.3812 15.0303 10.4237 15.1258 10.4276 15.2358C10.4309 15.3458 10.3865 15.4467 10.2943 15.5383C10.2031 15.6272 10.1051 15.6725 10.0001 15.6742C9.89564 15.6753 9.79731 15.63 9.70508 15.5383L4.63842 10.4717C4.56564 10.3983 4.51453 10.3239 4.48508 10.2483C4.45564 10.1728 4.44092 10.09 4.44092 10C4.44092 9.91001 4.45564 9.82723 4.48508 9.75167C4.51453 9.67612 4.56564 9.60195 4.63842 9.52917L9.70508 4.46167C9.78286 4.38389 9.87759 4.34223 9.98925 4.33667C10.1015 4.33112 10.2034 4.37278 10.2951 4.46167C10.3868 4.55334 10.4326 4.65223 10.4326 4.75834C10.4326 4.86501 10.3868 4.96417 10.2951 5.05584L5.76675 9.58334H15.4168C15.5356 9.58334 15.6348 9.62306 15.7143 9.70251C15.7937 9.78195 15.8334 9.88112 15.8334 10C15.8334 10.1189 15.7937 10.2181 15.7143 10.2975C15.6348 10.3769 15.5356 10.4167 15.4168 10.4167H5.76758Z" fill="black"/>
</svg>
