<svg width="16" height="16" viewBox="0 0 16 16" fill="none" xmlns="http://www.w3.org/2000/svg">
<path fill-rule="evenodd" clip-rule="evenodd" d="M3.33337 6C3.33337 4.76232 3.82503 3.57534 4.7002 2.70017C5.57537 1.825 6.76236 1.33333 8.00003 1.33333C9.23771 1.33333 10.4247 1.825 11.2999 2.70017C12.175 3.57534 12.6667 4.76232 12.6667 6V8.50933L13.8814 10.9387C13.9373 11.0505 13.9637 11.1747 13.9581 11.2996C13.9525 11.4245 13.915 11.5459 13.8493 11.6522C13.7835 11.7586 13.6917 11.8463 13.5825 11.9072C13.4733 11.9681 13.3504 12 13.2254 12H10.5827C10.4344 12.5722 10.1003 13.0789 9.63288 13.4406C9.16543 13.8024 8.5911 13.9986 8.00003 13.9986C7.40897 13.9986 6.83464 13.8024 6.36719 13.4406C5.89975 13.0789 5.56566 12.5722 5.41737 12H2.7747C2.64969 12 2.52674 11.9681 2.41755 11.9072C2.30835 11.8463 2.21653 11.7586 2.1508 11.6522C2.08507 11.5459 2.04762 11.4245 2.042 11.2996C2.03638 11.1747 2.06279 11.0505 2.1187 10.9387L3.33337 8.50933V6ZM6.84537 12C6.9624 12.2027 7.13071 12.371 7.3334 12.488C7.53608 12.605 7.766 12.6666 8.00003 12.6666C8.23407 12.6666 8.46399 12.605 8.66667 12.488C8.86936 12.371 9.03767 12.2027 9.1547 12H6.84537ZM8.00003 2.66667C7.11598 2.66667 6.26813 3.01786 5.64301 3.64298C5.01789 4.2681 4.6667 5.11595 4.6667 6V8.50933C4.66669 8.71622 4.61853 8.92027 4.52603 9.10533L3.74603 10.6667H12.2547L11.4747 9.10533C11.382 8.92033 11.3336 8.71628 11.3334 8.50933V6C11.3334 5.11595 10.9822 4.2681 10.3571 3.64298C9.73194 3.01786 8.88409 2.66667 8.00003 2.66667Z" fill="black"/>
</svg>
