<svg width="14" height="14" viewBox="0 0 14 14" fill="none" xmlns="http://www.w3.org/2000/svg">
<path d="M11.0834 2.33334H9.91675V1.75001C9.91675 1.5953 9.85529 1.44692 9.74589 1.33753C9.6365 1.22813 9.48812 1.16667 9.33342 1.16667C9.17871 1.16667 9.03033 1.22813 8.92094 1.33753C8.81154 1.44692 8.75008 1.5953 8.75008 1.75001V2.33334H5.25008V1.75001C5.25008 1.5953 5.18862 1.44692 5.07923 1.33753C4.96983 1.22813 4.82146 1.16667 4.66675 1.16667C4.51204 1.16667 4.36367 1.22813 4.25427 1.33753C4.14487 1.44692 4.08342 1.5953 4.08342 1.75001V2.33334H2.91675C2.45262 2.33334 2.0075 2.51771 1.67931 2.8459C1.35112 3.17409 1.16675 3.61921 1.16675 4.08334V11.0833C1.16675 11.5475 1.35112 11.9926 1.67931 12.3208C2.0075 12.649 2.45262 12.8333 2.91675 12.8333H11.0834C11.5475 12.8333 11.9927 12.649 12.3209 12.3208C12.649 11.9926 12.8334 11.5475 12.8334 11.0833V4.08334C12.8334 3.61921 12.649 3.17409 12.3209 2.8459C11.9927 2.51771 11.5475 2.33334 11.0834 2.33334ZM11.6667 11.0833C11.6667 11.238 11.6053 11.3864 11.4959 11.4958C11.3865 11.6052 11.2381 11.6667 11.0834 11.6667H2.91675C2.76204 11.6667 2.61367 11.6052 2.50427 11.4958C2.39487 11.3864 2.33341 11.238 2.33341 11.0833V7.00001H11.6667V11.0833ZM11.6667 5.83334H2.33341V4.08334C2.33341 3.92863 2.39487 3.78026 2.50427 3.67086C2.61367 3.56146 2.76204 3.50001 2.91675 3.50001H4.08342V4.08334C4.08342 4.23805 4.14487 4.38642 4.25427 4.49582C4.36367 4.60521 4.51204 4.66667 4.66675 4.66667C4.82146 4.66667 4.96983 4.60521 5.07923 4.49582C5.18862 4.38642 5.25008 4.23805 5.25008 4.08334V3.50001H8.75008V4.08334C8.75008 4.23805 8.81154 4.38642 8.92094 4.49582C9.03033 4.60521 9.17871 4.66667 9.33342 4.66667C9.48812 4.66667 9.6365 4.60521 9.74589 4.49582C9.85529 4.38642 9.91675 4.23805 9.91675 4.08334V3.50001H11.0834C11.2381 3.50001 11.3865 3.56146 11.4959 3.67086C11.6053 3.78026 11.6667 3.92863 11.6667 4.08334V5.83334Z" fill="#545454"/>
</svg>
