<svg width="65" height="63" viewBox="0 0 65 63" fill="none" xmlns="http://www.w3.org/2000/svg">
<g clip-path="url(#clip0_5_37)">
<path d="M21.6667 13H16.25C14.8134 13 13.4357 13.5479 12.4198 14.523C11.404 15.4982 10.8333 16.8209 10.8333 18.2V49.4C10.8333 50.7791 11.404 52.1018 12.4198 53.077C13.4357 54.0521 14.8134 54.6 16.25 54.6H31.6794M48.75 36.4V46.8H59.5833M48.75 28.6V18.2C48.75 16.8209 48.1793 15.4982 47.1635 14.523C46.1477 13.5479 44.7699 13 43.3333 13H37.9167" stroke="#F6F7FF" stroke-width="5.2" stroke-linecap="round" stroke-linejoin="round"/>
<path d="M21.6667 28.6H32.5M21.6667 39H29.7917M21.6667 13C21.6667 11.6209 22.2374 10.2982 23.2532 9.32305C24.269 8.34786 25.6468 7.8 27.0834 7.8H32.5C33.9366 7.8 35.3144 8.34786 36.3302 9.32305C37.346 10.2982 37.9167 11.6209 37.9167 13C37.9167 14.3791 37.346 15.7018 36.3302 16.677C35.3144 17.6521 33.9366 18.2 32.5 18.2H27.0834C25.6468 18.2 24.269 17.6521 23.2532 16.677C22.2374 15.7018 21.6667 14.3791 21.6667 13ZM37.9167 46.8C37.9167 49.5583 39.0581 52.2035 41.0897 54.1539C43.1213 56.1043 45.8768 57.2 48.75 57.2C51.6232 57.2 54.3787 56.1043 56.4103 54.1539C58.442 52.2035 59.5834 49.5583 59.5834 46.8C59.5834 44.0418 58.442 41.3965 56.4103 39.4461C54.3787 37.4957 51.6232 36.4 48.75 36.4C45.8768 36.4 43.1213 37.4957 41.0897 39.4461C39.0581 41.3965 37.9167 44.0418 37.9167 46.8Z" stroke="#F6F7FF" stroke-width="5.2" stroke-linecap="round" stroke-linejoin="round"/>
<g clip-path="url(#clip1_5_37)">
<path d="M64.6865 45.7974C64.0015 45.7834 63.4816 46.0566 63.0776 46.4829C62.2694 53.1489 58.9279 59.8812 45.802 59.8812C32.8668 59.8812 29.0648 52.8515 28.04 46.4647C27.6384 46.0489 27.1238 45.7836 26.4488 45.7974C22.9719 45.8689 22.8435 40.3378 26.3204 40.2663C28.1214 40.2663 30.199 36.0123 34.3372 34.4657L32.4289 41.3419L31.8958 41.6703H59.2396L58.7066 41.3419L56.7983 34.4657C60.9364 36.0123 63.0141 40.2663 64.815 40.2663C68.2917 40.3378 68.1634 45.8689 64.6865 45.7974Z" fill="#2B3B47"/>
<path d="M63.3221 41.6703C63.3221 46.8145 55.346 50.9847 45.5069 50.9847C35.6678 50.9847 27.6918 46.8145 27.6918 41.6703C27.6918 36.5261 35.6679 32.3559 45.507 32.3559C55.3461 32.3559 63.3221 36.5261 63.3221 41.6703Z" fill="#597B91"/>
<path d="M61.143 42.8793C61.143 47.0052 54.1425 50.3499 45.507 50.3499C36.8715 50.3499 29.8709 47.0052 29.8709 42.8793C29.8709 38.7533 36.8714 35.4087 45.5069 35.4087C54.1424 35.4087 61.143 38.7534 61.143 42.8793Z" fill="#F9E7C0"/>
<path d="M46.1896 34.9576C46.8538 33.0683 45.5377 33.2548 44.4459 35.2587C44.432 35.2569 44.4181 35.2552 44.4041 35.2537C45.0231 33.3745 43.5735 33.6998 42.4746 35.9461C43.1344 34.2344 42.0168 34.2798 40.8899 35.5738C41.1286 34.2442 39.884 34.6605 38.8913 36.6202C38.4361 36.5452 38.2453 36.7997 38.5185 37.3464C38.4418 37.3733 38.3657 37.4018 38.2904 37.432C36.8498 36.3431 35.9095 36.6615 37.041 38.0893L37.0204 38.1027C35.3282 36.5031 33.9922 36.641 35.0812 38.1235C35.0615 38.1292 35.0414 38.1355 35.0209 38.1425C33.4192 36.7048 32.2003 36.8547 33.1909 38.2468C32.9184 38.2655 32.596 38.3095 32.2141 38.3861C29.4061 38.9485 30.4353 40.0965 33.2165 39.6478C31.936 41.2315 33.245 41.4576 34.9694 39.8963C34.9822 39.9024 34.9949 39.9083 35.0073 39.9139C33.7731 41.5018 35.2564 41.6375 37.0712 39.8491C35.8562 41.2662 36.9289 41.5651 38.4413 40.6858C37.6808 42.0014 39.3945 41.8398 41.2377 39.7358C41.7676 39.7295 42.438 39.6362 43.2082 39.4131C43.2082 39.4131 43.3885 39.1025 43.2815 38.8386C44.1844 38.8656 44.2836 38.2925 42.9185 37.483C45.1982 38.6108 46.5428 38.0724 44.9523 36.9696C44.969 36.9582 44.9858 36.9461 45.0028 36.9332C47.0139 37.8031 48.1149 37.2885 46.6975 36.2749C46.9488 36.1739 47.2384 36.0337 47.5732 35.8446C50.0347 34.4538 48.665 33.6828 46.1896 34.9576ZM35.8377 38.9865L35.8426 38.9807L35.864 39.0012L35.8561 39.0084L35.8377 38.9865ZM37.8399 38.9915C37.8472 38.9822 37.8546 38.9733 37.862 38.964L37.8618 38.9629C37.8832 38.9824 37.9043 39.0011 37.9252 39.0197C37.9126 39.0298 37.9 39.04 37.8874 39.0503C37.8717 39.0306 37.8558 39.011 37.8399 38.9915ZM41.9783 36.9511C42.0002 36.965 42.0219 36.9787 42.0436 36.9921L42.0322 37.0248L42.0327 37.0259C42.0057 37.0139 41.9794 37.0027 41.953 36.9915C41.9615 36.9782 41.9699 36.9648 41.9783 36.9511ZM43.9139 36.3696L43.9389 36.3846L43.9363 36.3915C43.927 36.3871 43.9181 36.383 43.9089 36.3787L43.9139 36.3696ZM41.7051 38.5316C41.5718 38.4309 41.4125 38.325 41.2265 38.2146C41.4417 38.3215 41.662 38.419 41.8868 38.5066C41.8286 38.5137 41.7678 38.5222 41.7051 38.5316Z" fill="#2ABA34"/>
<path d="M52.4386 37.1072C56.0644 37.1072 56.0644 40.5721 52.4386 40.5721C48.8128 40.5721 48.8128 37.1072 52.4386 37.1072ZM55.158 44.6118C58.7837 44.6118 58.7837 41.1469 55.158 41.1469C51.5322 41.1469 51.5322 44.6118 55.158 44.6118ZM53.3019 47.9958C56.9277 47.9958 56.9277 44.5309 53.3019 44.5309C49.6761 44.5309 49.6761 47.9958 53.3019 47.9958Z" fill="#F9F9F7"/>
<path d="M51.0837 43.6719C51.0161 43.7568 50.9179 43.8157 50.8075 43.8374C50.6971 43.8591 50.5821 43.8421 50.484 43.7898L50.4466 43.7698L50.2358 43.6573C50.1668 43.6237 50.0794 43.5867 49.9823 43.542C49.8807 43.5034 49.7671 43.4578 49.6397 43.4161C49.5105 43.3774 49.3731 43.3318 49.2215 43.3006C49.0731 43.2604 48.9111 43.2393 48.7471 43.21L48.4942 43.1839C48.4093 43.1725 48.3227 43.171 48.2358 43.1689L48.1054 43.1647L48.04 43.1625L47.9746 43.1656L47.7134 43.1766C47.6267 43.1828 47.5411 43.1969 47.4559 43.206L47.3286 43.2211L47.2045 43.2472C47.1224 43.265 47.0405 43.2792 46.9611 43.2981L46.7306 43.3672C46.693 43.3786 46.6553 43.3885 46.6188 43.4006L46.513 43.4435L46.3091 43.5244C46.1801 43.5844 46.0631 43.65 45.9529 43.7036C45.8567 43.7646 45.7746 43.8202 45.6983 43.8666L45.6433 43.9005L45.5795 43.9495L45.4671 44.0358L45.2538 44.1996C44.8836 44.4838 44.3387 44.4318 44.0367 44.0834C43.7348 43.735 43.79 43.2222 44.1602 42.9379C44.1871 42.9174 44.2149 42.8985 44.2435 42.8813L44.2485 42.8785L44.4818 42.7409L44.6744 42.6273L44.7723 42.578C44.9076 42.5111 45.0615 42.4339 45.2277 42.3592C45.3918 42.2996 45.5669 42.2302 45.7562 42.17L46.0527 42.0912L46.2056 42.0516C46.2577 42.0409 46.3111 42.0327 46.3643 42.0232L46.6889 41.9685C46.7992 41.9555 46.9113 41.9482 47.0236 41.9384L47.1925 41.925L47.3626 41.9241C47.476 41.9249 47.5898 41.9216 47.7027 41.9269L48.0399 41.9525L48.1235 41.9592L48.2061 41.9713L48.3702 41.9959C48.479 42.0119 48.5867 42.0276 48.6908 42.0535C48.7953 42.077 48.8986 42.0989 48.9991 42.1236L49.0683 42.1438C48.9682 42.0508 48.8531 41.9642 48.7392 41.8713L48.5344 41.7292C48.4672 41.6792 48.393 41.637 48.319 41.594L48.2085 41.5287L48.1531 41.4959L48.0949 41.4676L47.8631 41.3537C47.7849 41.3181 47.7034 41.2897 47.6248 41.2573L47.5067 41.2102L47.3855 41.174C47.305 41.1505 47.2266 41.1241 47.1479 41.103L46.9117 41.0538C46.8731 41.0459 46.8352 41.0365 46.7973 41.0297L46.6828 41.0168L46.4632 40.9904C46.3197 40.9813 46.1835 40.9827 46.0597 40.9769C45.9439 40.9842 45.8432 40.9935 45.7525 40.9975L45.6868 41.0008L45.6055 41.013L45.4623 41.0344L45.1904 41.0751C44.7186 41.1458 44.2753 40.8432 44.2002 40.3992C44.1251 39.9552 44.4465 39.5379 44.9183 39.4672C44.9526 39.4621 44.9867 39.4589 45.0205 39.4576L45.0264 39.4575L45.3014 39.4489L45.4464 39.4444L45.5287 39.4418L45.6397 39.4454C45.7924 39.4516 45.9666 39.4575 46.1502 39.4716C46.324 39.4977 46.5124 39.5204 46.7082 39.5579L47.0065 39.63L47.1599 39.668C47.2108 39.6834 47.2612 39.7015 47.3124 39.7185L47.6222 39.8248C47.7244 39.8656 47.8253 39.9124 47.9276 39.957L48.0809 40.0254L48.2284 40.105C48.326 40.1594 48.4262 40.2102 48.5211 40.2682L48.7989 40.4498L48.8676 40.4952L48.9326 40.5446L49.0613 40.6434C49.1468 40.7088 49.2315 40.7733 49.3078 40.8449C49.3855 40.9147 49.4632 40.9824 49.5369 41.0512C49.6771 41.196 49.8162 41.3313 49.9306 41.4742C50.0522 41.6108 50.152 41.7516 50.2458 41.8791C50.337 42.0088 50.4125 42.1332 50.4801 42.2422C50.5417 42.356 50.5968 42.4534 50.6382 42.5364L50.7585 42.8034C50.7758 42.8417 50.7864 42.8812 50.7916 42.9206L50.9905 43.0609C51.0392 43.0952 51.0803 43.1383 51.1114 43.1876C51.1425 43.2369 51.1629 43.2915 51.1716 43.3482C51.1803 43.4049 51.177 43.4627 51.1619 43.5183C51.1468 43.5738 51.1202 43.626 51.0837 43.6719Z" fill="#FF473E"/>
<path d="M43.5814 48.6285C40.8486 47.9202 42.5887 42.4033 45.6179 42.706C48.6472 43.0086 54.0091 51.3313 43.5814 48.6285ZM41.1521 43.3794C42.4278 40.7757 35.6099 38.6867 34.021 40.8961C27.9582 49.326 39.8765 45.983 41.1521 43.3794Z" fill="#E2AF8D"/>
<path d="M38.7163 48.9611C35.9834 48.2528 37.7236 42.7359 40.7528 43.0385C43.7821 43.3412 49.144 51.6639 38.7163 48.9611Z" fill="#D19878"/>
<path d="M43.6389 21.815L43.7872 21.829C43.8854 21.8443 44.0187 21.8358 44.2191 21.9132C44.3158 21.9465 44.4339 21.9763 44.5331 22.0407C44.6363 22.1014 44.7611 22.157 44.86 22.2551L45.0241 22.3983C45.0798 22.4487 45.1207 22.5122 45.1715 22.5723C45.279 22.6912 45.3463 22.8386 45.4247 22.9914C45.5526 23.3029 45.6456 23.6706 45.6005 24.0631C45.5603 24.4515 45.4214 24.8702 45.1255 25.227C44.84 25.5895 44.3839 25.8616 43.904 25.9652L43.7228 26.0071C43.7007 26.0153 43.631 26.026 43.5873 26.0354L43.4376 26.0645L43.3276 26.0981C43.183 26.1364 43.0207 26.212 42.8802 26.2858C42.5979 26.4448 42.3514 26.6617 42.1801 26.9295C42.0106 27.1962 41.8829 27.4934 41.838 27.8007C41.7901 28.1059 41.7919 28.4134 41.8541 28.695C41.9164 28.976 42.0216 29.2337 42.1596 29.4508C42.2884 29.65 42.4491 29.8293 42.6362 29.9821C42.8054 30.1224 42.9815 30.2147 43.1287 30.2904C43.2806 30.3556 43.4041 30.4094 43.4929 30.4329L43.6276 30.4778L43.6396 30.4817C43.6673 30.4911 43.6904 30.5094 43.7049 30.5335C43.7193 30.5576 43.724 30.5857 43.7182 30.6128C43.7124 30.6399 43.6965 30.6641 43.6732 30.681C43.65 30.6979 43.6211 30.7064 43.5918 30.7049L43.4369 30.6964C43.3351 30.6925 43.1861 30.6744 42.9971 30.6336C42.8119 30.5841 42.5784 30.5218 42.3404 30.385C42.1002 30.2548 41.8443 30.0687 41.6249 29.8127C41.1791 29.3101 40.8787 28.534 40.9643 27.7029C41.0037 27.2898 41.1281 26.8595 41.3737 26.4725C41.612 26.0834 41.9708 25.7438 42.39 25.5026C42.6097 25.3917 42.8198 25.2982 43.0705 25.2343L43.2546 25.1871L43.4049 25.1609C43.4608 25.1505 43.4919 25.1474 43.5679 25.1309L43.6819 25.1049C43.9848 25.0408 44.2598 24.9169 44.4471 24.7019C44.6366 24.4938 44.767 24.2355 44.8259 23.9683C44.8854 23.6992 44.8577 23.4324 44.8045 23.1944C44.7647 23.0793 44.7325 22.9635 44.6712 22.8682C44.6429 22.8196 44.6238 22.7648 44.5903 22.7225L44.491 22.5984C44.434 22.5087 44.3459 22.4594 44.2804 22.3934C44.2136 22.3231 44.1397 22.2928 44.0756 22.2514C43.9581 22.1643 43.8057 22.1232 43.719 22.0898L43.5805 22.038C43.5655 22.0324 43.5518 22.024 43.5402 22.0134C43.5286 22.0028 43.5193 21.9901 43.5129 21.9761C43.5065 21.9621 43.5031 21.9471 43.5029 21.9319C43.5026 21.9166 43.5056 21.9015 43.5116 21.8874C43.5216 21.8639 43.5395 21.8442 43.5624 21.8312C43.5854 21.8181 43.6122 21.8124 43.6389 21.815ZM36.5189 26.1065C36.4921 26.067 36.4497 26.0391 36.4011 26.029C36.3525 26.0188 36.3016 26.0272 36.2596 26.0524L36.1604 26.1119C36.0952 26.1577 36.0021 26.1909 35.8791 26.2982L35.6788 26.4678L35.475 26.6845C35.3409 26.849 35.2075 27.0493 35.0898 27.2851C34.9865 27.5247 34.8931 27.7969 34.8557 28.0969C34.8041 28.3964 34.8296 28.7197 34.8871 29.0492C34.9471 29.3806 35.0887 29.709 35.2775 30.0197C35.381 30.17 35.485 30.3232 35.6171 30.4575C35.6797 30.5272 35.7423 30.5974 35.8163 30.657L36.0084 30.8181C36.1195 30.9151 36.2783 31.0318 36.3247 31.1033C36.3975 31.173 36.4683 31.2768 36.5399 31.3743C36.6637 31.5801 36.7707 31.7919 36.8331 32.014C36.8903 32.2354 36.9352 32.4577 36.9323 32.6727C36.9406 32.8878 36.9163 33.0934 36.8756 33.2826C36.8459 33.3735 36.8333 33.469 36.8016 33.5528C36.7681 33.6356 36.7409 33.7185 36.7071 33.7932L36.606 34.0035C36.5672 34.0645 36.5311 34.1217 36.4999 34.1759C36.44 34.2869 36.3682 34.3565 36.3311 34.4166L36.2682 34.5049L36.2519 34.5278C36.2287 34.5603 36.2177 34.5992 36.2206 34.6383C36.2235 34.6774 36.2402 34.7145 36.268 34.7437C36.2958 34.7729 36.3331 34.7925 36.3741 34.7995C36.415 34.8065 36.4573 34.8005 36.4942 34.7824C36.4942 34.7824 36.5334 34.7631 36.6069 34.7273C36.6775 34.6874 36.7962 34.6416 36.9161 34.5454C36.979 34.5001 37.0503 34.4498 37.1224 34.3891L37.3395 34.1749C37.4832 34.0114 37.6253 33.8086 37.749 33.5679C37.8546 33.3228 37.9605 33.0448 37.9934 32.7364C38.0422 32.4295 38.018 32.0971 37.9475 31.7625C37.8746 31.4268 37.7228 31.0949 37.5184 30.7885C37.4073 30.6407 37.3002 30.4924 37.1447 30.3463C36.988 30.1806 36.8819 30.1177 36.7543 30.0099L36.5803 29.8718C36.5268 29.8369 36.4834 29.7925 36.4388 29.749C36.3427 29.6675 36.2687 29.5686 36.1894 29.4737C36.0501 29.2721 35.9329 29.0565 35.8577 28.8302C35.7874 28.6039 35.7436 28.3726 35.744 28.1502C35.7311 27.9264 35.7679 27.7151 35.8109 27.5205C35.8603 27.3271 35.9275 27.1529 36.0036 27.0034L36.1181 26.7957L36.2302 26.6366C36.287 26.5367 36.3842 26.4547 36.4268 26.4004L36.5031 26.3163C36.5292 26.2875 36.5448 26.2516 36.5477 26.2138C36.5505 26.1761 36.5404 26.1385 36.5189 26.1065ZM53.3973 26.1065C53.3705 26.067 53.3282 26.0391 53.2796 26.029C53.231 26.0188 53.1801 26.0272 53.1381 26.0524L53.0389 26.1119C52.9737 26.1577 52.8805 26.1909 52.7575 26.2982L52.5572 26.4678L52.3534 26.6845C52.2193 26.849 52.086 27.0493 51.9682 27.2851C51.865 27.5247 51.7716 27.7969 51.7341 28.0969C51.6826 28.3964 51.708 28.7197 51.7655 29.0492C51.8255 29.3806 51.9672 29.709 52.156 30.0197C52.2595 30.17 52.3634 30.3232 52.4955 30.4575C52.5581 30.5272 52.6208 30.5974 52.6948 30.657L52.8868 30.8181C52.9979 30.9151 53.1568 31.0318 53.2031 31.1033C53.2759 31.173 53.3467 31.2768 53.4184 31.3743C53.5422 31.5801 53.6491 31.7919 53.7115 32.014C53.7688 32.2354 53.8137 32.4577 53.8107 32.6727C53.819 32.8878 53.7948 33.0934 53.754 33.2826C53.7244 33.3735 53.7118 33.469 53.68 33.5528C53.6465 33.6356 53.6193 33.7185 53.5856 33.7932L53.4844 34.0035C53.4456 34.0645 53.4096 34.1217 53.3783 34.1759C53.3185 34.2869 53.2467 34.3565 53.2095 34.4166L53.1467 34.5049L53.1304 34.5278C53.1072 34.5603 53.0962 34.5992 53.0991 34.6383C53.102 34.6774 53.1186 34.7145 53.1464 34.7437C53.1742 34.7729 53.2115 34.7925 53.2525 34.7995C53.2935 34.8065 53.3358 34.8005 53.3727 34.7824C53.3727 34.7824 53.4119 34.7631 53.4853 34.7273C53.556 34.6874 53.6747 34.6416 53.7946 34.5454C53.8574 34.5001 53.9287 34.4498 54.0008 34.3891L54.2179 34.1749C54.3617 34.0114 54.5038 33.8086 54.6275 33.5679C54.7331 33.3228 54.839 33.0448 54.8719 32.7364C54.9206 32.4295 54.8965 32.0971 54.8259 31.7625C54.7531 31.4268 54.6012 31.0949 54.3969 30.7885C54.2858 30.6407 54.1787 30.4924 54.0232 30.3463C53.8665 30.1806 53.7604 30.1177 53.6327 30.0099L53.4588 29.8718C53.4052 29.8369 53.3618 29.7925 53.3173 29.749C53.2212 29.6675 53.1471 29.5686 53.0679 29.4737C52.9285 29.2721 52.8113 29.0565 52.7361 28.8302C52.6658 28.6039 52.6221 28.3726 52.6224 28.1502C52.6096 27.9264 52.6463 27.7151 52.6893 27.5205C52.7387 27.3271 52.8059 27.1529 52.882 27.0034L52.9966 26.7957L53.1086 26.6366C53.1654 26.5367 53.2626 26.4547 53.3053 26.4004L53.3816 26.3163C53.4077 26.2875 53.4233 26.2516 53.4261 26.2138C53.4289 26.1761 53.4188 26.1385 53.3973 26.1065ZM47.1972 34.1482C47.2225 34.1312 47.2395 34.1053 47.2446 34.0764C47.2496 34.0475 47.2423 34.0179 47.2241 33.9941L47.1813 33.938C47.1568 33.902 47.104 33.846 47.071 33.7811C47.0288 33.7199 46.9875 33.6373 46.9433 33.5422C46.9063 33.4458 46.8682 33.3378 46.8583 33.2188C46.8375 33.1018 46.8512 32.975 46.8817 32.8499C46.912 32.7242 46.9738 32.5993 47.061 32.4835C47.1528 32.3615 47.2647 32.254 47.3923 32.165C47.4245 32.1407 47.4572 32.1167 47.4947 32.0968L47.6244 32.0184C47.711 31.9601 47.782 31.9284 47.8903 31.8261C48.0974 31.6488 48.2169 31.4689 48.3304 31.2693C48.4402 31.073 48.499 30.8644 48.5406 30.6637C48.5824 30.4622 48.5811 30.2635 48.5672 30.0785C48.5511 29.8929 48.507 29.7207 48.4516 29.5671C48.3998 29.4275 48.3306 29.2941 48.2453 29.1699C48.1668 29.06 48.0894 28.972 48.014 28.9086C47.9483 28.8394 47.8746 28.8033 47.8337 28.7737L47.7677 28.7314C47.7462 28.7175 47.7204 28.7108 47.6944 28.7124C47.6684 28.714 47.6437 28.7237 47.6243 28.74C47.6049 28.7563 47.5919 28.7783 47.5873 28.8024C47.5827 28.8266 47.5869 28.8514 47.5991 28.8731L47.6091 28.891L47.6416 28.949C47.6591 28.9895 47.6989 29.0349 47.7263 29.1084C47.7583 29.1781 47.7957 29.2604 47.8224 29.3611C47.8516 29.4597 47.8791 29.5716 47.8907 29.6965C47.9118 29.8189 47.9083 29.9553 47.9051 30.0961C47.9019 30.238 47.8724 30.3848 47.8412 30.5334C47.8062 30.6817 47.7495 30.8282 47.681 30.9672C47.6136 31.0992 47.5113 31.2454 47.4192 31.3257C47.3918 31.3662 47.2865 31.4325 47.2139 31.4895L47.2101 31.4923C47.2049 31.4957 47.2494 31.4674 47.2295 31.4801L47.2273 31.4816L47.2184 31.4876L47.2007 31.4996L47.1654 31.5238L47.0955 31.5722C47.0481 31.6028 47.0041 31.6391 46.961 31.6761C46.785 31.8175 46.6329 31.9894 46.527 32.1805C46.4203 32.3695 46.3446 32.5726 46.3318 32.7722C46.318 32.9698 46.3357 33.1584 46.3932 33.3179C46.4454 33.4791 46.526 33.6101 46.5997 33.7203C46.6824 33.8244 46.7599 33.91 46.8339 33.975C46.9052 34.0452 46.9609 34.0733 46.9991 34.1041L47.0574 34.146C47.0774 34.1605 47.1018 34.1685 47.1269 34.1688C47.1521 34.1692 47.1767 34.162 47.1972 34.1482Z" fill="#D7F4F7"/>
</g>
</g>
<defs>
<clipPath id="clip0_5_37">
<rect width="65" height="62.4" fill="white"/>
</clipPath>
<clipPath id="clip1_5_37">
<rect width="44.2" height="41.6" fill="white" transform="translate(23.4 20.8)"/>
</clipPath>
</defs>
</svg>
