<svg width="20" height="20" viewBox="0 0 20 20" fill="none" xmlns="http://www.w3.org/2000/svg">
<path d="M6.29833 3.125H6.04167C5.26812 3.125 4.52625 3.43229 3.97927 3.97927C3.43229 4.52625 3.125 5.26812 3.125 6.04167V14.2308C3.125 14.9321 3.40358 15.6047 3.89946 16.1005C4.39534 16.5964 5.06789 16.875 5.76917 16.875M6.29833 3.125V5.16C6.29833 5.60203 6.47393 6.02595 6.78649 6.33851C7.09905 6.65107 7.52297 6.82667 7.965 6.82667H9.92C10.362 6.82667 10.786 6.65107 11.0985 6.33851C11.4111 6.02595 11.5867 5.60203 11.5867 5.16V3.125M6.29833 3.125H11.5867M5.76917 16.875V12.5C5.76917 11.837 6.03256 11.2011 6.5014 10.7322C6.97024 10.2634 7.60613 10 8.26917 10H11.7308C12.3939 10 13.0298 10.2634 13.4986 10.7322C13.9674 11.2011 14.2308 11.837 14.2308 12.5V16.875M5.76917 16.875H14.2308M11.5867 3.125H11.6083C11.9368 3.12496 12.262 3.18963 12.5654 3.31532C12.8688 3.441 13.1445 3.62524 13.3767 3.8575L16.0208 6.50167C16.2917 6.77253 16.5065 7.09408 16.6531 7.44796C16.7996 7.80185 16.875 8.18113 16.875 8.56417V14.2308C16.875 14.9321 16.5964 15.6047 16.1005 16.1005C15.6047 16.5964 14.9321 16.875 14.2308 16.875" stroke="#454545" stroke-width="1.5" stroke-linecap="round" stroke-linejoin="round"/>
</svg>
