<svg width="19" height="19" viewBox="0 0 19 19" fill="none" xmlns="http://www.w3.org/2000/svg">
<path d="M13.814 12.7308L17.0954 16.0113L16.0113 17.0954L12.7307 13.8141C11.5101 14.7926 9.99182 15.3248 8.42739 15.3226C4.62126 15.3226 1.53223 12.2335 1.53223 8.42742C1.53223 4.62129 4.62126 1.53226 8.42739 1.53226C12.2335 1.53226 15.3225 4.62129 15.3225 8.42742C15.3248 9.99185 14.7926 11.5101 13.814 12.7308ZM12.2772 12.1623C13.2493 11.1623 13.7922 9.82205 13.7903 8.42742C13.7903 5.4648 11.39 3.06452 8.42739 3.06452C5.46477 3.06452 3.06448 5.4648 3.06448 8.42742C3.06448 11.39 5.46477 13.7903 8.42739 13.7903C9.82202 13.7923 11.1622 13.2493 12.1623 12.2772L12.2772 12.1623Z" fill="#808080"/>
</svg>
