<svg width="17" height="17" viewBox="0 0 17 17" fill="none" xmlns="http://www.w3.org/2000/svg">
<path d="M12.814 11.7308L16.0954 15.0113L15.0113 16.0954L11.7307 12.8141C10.5101 13.7926 8.99182 14.3248 7.42739 14.3226C3.62126 14.3226 0.532227 11.2335 0.532227 7.42742C0.532227 3.62129 3.62126 0.532257 7.42739 0.532257C11.2335 0.532257 14.3225 3.62129 14.3225 7.42742C14.3248 8.99185 13.7926 10.5101 12.814 11.7308ZM11.2772 11.1623C12.2493 10.1623 12.7922 8.82205 12.7903 7.42742C12.7903 4.4648 10.39 2.06452 7.42739 2.06452C4.46477 2.06452 2.06448 4.4648 2.06448 7.42742C2.06448 10.39 4.46477 12.7903 7.42739 12.7903C8.82202 12.7923 10.1622 12.2493 11.1623 11.2772L11.2772 11.1623Z" fill="#808080"/>
</svg>
